<svg width="1433" height="1594" viewBox="0 0 1433 1594" fill="none" xmlns="http://www.w3.org/2000/svg">
<g clip-path="url(#clip0)">
<rect width="1433" height="1594" fill="#FAFBFF"/>
<path d="M101.491 1030.64C99.3997 1032.73 99.3997 1036.12 101.491 1038.21C103.583 1040.3 106.974 1040.3 109.065 1038.21C111.157 1036.12 111.157 1032.73 109.065 1030.64C106.974 1028.55 103.583 1028.55 101.491 1030.64Z" fill="#FA4343"/>
<path d="M1048.64 1029.64C1046.55 1031.73 1046.55 1035.12 1048.64 1037.21C1050.73 1039.3 1054.12 1039.3 1056.21 1037.21C1058.3 1035.12 1058.3 1031.73 1056.21 1029.64C1054.12 1027.55 1050.73 1027.55 1048.64 1029.64Z" fill="#FA4343"/>
<path d="M425.152 933.3L418.552 936.7M425.152 930.7L418.552 927.3M424.852 932C424.852 930.343 426.195 929 427.852 929C429.509 929 430.852 930.343 430.852 932C430.852 933.657 429.509 935 427.852 935C426.195 935 424.852 933.657 424.852 932ZM412.852 938C412.852 936.343 414.195 935 415.852 935C417.509 935 418.852 936.343 418.852 938C418.852 939.657 417.509 941 415.852 941C414.195 941 412.852 939.657 412.852 938ZM412.852 926C412.852 924.343 414.195 923 415.852 923C417.509 923 418.852 924.343 418.852 926C418.852 927.657 417.509 929 415.852 929C414.195 929 412.852 927.657 412.852 926Z" stroke="#080708" stroke-width="2" stroke-linecap="round" stroke-linejoin="round"/>
<path d="M1372.3 913.3L1365.7 916.7M1372.3 910.7L1365.7 907.3M1372 912C1372 910.343 1373.34 909 1375 909C1376.66 909 1378 910.343 1378 912C1378 913.657 1376.66 915 1375 915C1373.34 915 1372 913.657 1372 912ZM1360 918C1360 916.343 1361.34 915 1363 915C1364.66 915 1366 916.343 1366 918C1366 919.657 1364.66 921 1363 921C1361.34 921 1360 919.657 1360 918ZM1360 906C1360 904.343 1361.34 903 1363 903C1364.66 903 1366 904.343 1366 906C1366 907.657 1364.66 909 1363 909C1361.34 909 1360 907.657 1360 906Z" stroke="#080708" stroke-width="2" stroke-linecap="round" stroke-linejoin="round"/>
<path d="M1374.21 722.639C1376.3 724.731 1376.3 728.122 1374.21 730.213C1372.12 732.305 1368.73 732.305 1366.64 730.213C1364.55 728.122 1364.55 724.731 1366.64 722.639C1368.73 720.548 1372.12 720.548 1374.21 722.639Z" fill="#FA4343"/>
<path d="M427.065 721.639C429.156 723.731 429.156 727.122 427.065 729.213C424.974 731.305 421.583 731.305 419.491 729.213C417.4 727.122 417.4 723.731 419.491 721.639C421.583 719.548 424.974 719.548 427.065 721.639Z" fill="#FA4343"/>
<path d="M730.852 484L744.852 475L730.852 466L730.852 484Z" stroke="#0000FF" stroke-width="2" stroke-linecap="round" stroke-linejoin="round"/>
<path d="M1055.15 627.3L1058.55 620.7M1052.55 627.3L1049.15 620.7M1053.85 627C1052.2 627 1050.85 628.343 1050.85 630C1050.85 631.657 1052.2 633 1053.85 633C1055.51 633 1056.85 631.657 1056.85 630C1056.85 628.343 1055.51 627 1053.85 627ZM1059.85 615C1058.2 615 1056.85 616.343 1056.85 618C1056.85 619.657 1058.2 621 1059.85 621C1061.51 621 1062.85 619.657 1062.85 618C1062.85 616.343 1061.51 615 1059.85 615ZM1047.85 615C1046.2 615 1044.85 616.343 1044.85 618C1044.85 619.657 1046.2 621 1047.85 621C1049.51 621 1050.85 619.657 1050.85 618C1050.85 616.343 1049.51 615 1047.85 615Z" stroke="#080708" stroke-width="2" stroke-linecap="round" stroke-linejoin="round"/>
<path d="M103.404 605.3L110.004 608.7M103.404 602.7L110.004 599.3M103.704 604C103.704 602.343 102.361 601 100.704 601C99.0472 601 97.7041 602.343 97.7041 604C97.7041 605.657 99.0472 607 100.704 607C102.361 607 103.704 605.657 103.704 604ZM115.704 610C115.704 608.343 114.361 607 112.704 607C111.047 607 109.704 608.343 109.704 610C109.704 611.657 111.047 613 112.704 613C114.361 613 115.704 611.657 115.704 610ZM115.704 598C115.704 596.343 114.361 595 112.704 595C111.047 595 109.704 596.343 109.704 598C109.704 599.657 111.047 601 112.704 601C114.361 601 115.704 599.657 115.704 598Z" stroke="#080708" stroke-width="2" stroke-linecap="round" stroke-linejoin="round"/>
<path d="M1047.36 1326.21C1045.27 1328.3 1041.88 1328.3 1039.79 1326.21C1037.7 1324.12 1037.7 1320.73 1039.79 1318.64C1041.88 1316.55 1045.27 1316.55 1047.36 1318.64C1049.45 1320.73 1049.45 1324.12 1047.36 1326.21Z" fill="#FA4343"/>
<path d="M1048.36 379.065C1046.27 381.156 1042.88 381.156 1040.79 379.065C1038.7 376.974 1038.7 373.583 1040.79 371.491C1042.88 369.4 1046.27 369.4 1048.36 371.491C1050.45 373.583 1050.45 376.974 1048.36 379.065Z" fill="#FA4343"/>
<path d="M1266 682.852L1275 696.852L1284 682.852L1266 682.852Z" stroke="#0000FF" stroke-width="2" stroke-linecap="round" stroke-linejoin="round"/>
<path d="M1415 354L1424 368L1433 354L1415 354Z" stroke="#0000FF" stroke-width="2" stroke-linecap="round" stroke-linejoin="round"/>
<path d="M1144.7 1002.55L1141.3 1009.15M1147.3 1002.55L1150.7 1009.15M1146 1002.85C1147.66 1002.85 1149 1001.51 1149 999.852C1149 998.195 1147.66 996.852 1146 996.852C1144.34 996.852 1143 998.195 1143 999.852C1143 1001.51 1144.34 1002.85 1146 1002.85ZM1140 1014.85C1141.66 1014.85 1143 1013.51 1143 1011.85C1143 1010.2 1141.66 1008.85 1140 1008.85C1138.34 1008.85 1137 1010.2 1137 1011.85C1137 1013.51 1138.34 1014.85 1140 1014.85ZM1152 1014.85C1153.66 1014.85 1155 1013.51 1155 1011.85C1155 1010.2 1153.66 1008.85 1152 1008.85C1150.34 1008.85 1149 1010.2 1149 1011.85C1149 1013.51 1150.34 1014.85 1152 1014.85Z" stroke="#080708" stroke-width="2" stroke-linecap="round" stroke-linejoin="round"/>
<path d="M185.36 1090.21C183.269 1092.3 179.878 1092.3 177.787 1090.21C175.695 1088.12 175.695 1084.73 177.787 1082.64C179.878 1080.55 183.269 1080.55 185.36 1082.64C187.452 1084.73 187.452 1088.12 185.36 1090.21Z" fill="#FA4343"/>
<path d="M171.361 11.3604C169.269 13.4519 165.878 13.4519 163.787 11.3604C161.696 9.26891 161.696 5.87795 163.787 3.78647C165.878 1.69499 169.269 1.69499 171.361 3.78647C173.452 5.87795 173.452 9.26891 171.361 11.3604Z" fill="#FA4343"/>
<path d="M404 446.852L413 460.852L422 446.852L404 446.852Z" stroke="#0000FF" stroke-width="2" stroke-linecap="round" stroke-linejoin="round"/>
<path d="M573 1047L564 1033L555 1047L573 1047Z" stroke="#0000FF" stroke-width="2" stroke-linecap="round" stroke-linejoin="round"/>
<path d="M282.7 766.552L279.3 773.152M285.3 766.552L288.7 773.152M284 766.852C285.657 766.852 287 765.509 287 763.852C287 762.195 285.657 760.852 284 760.852C282.343 760.852 281 762.195 281 763.852C281 765.509 282.343 766.852 284 766.852ZM278 778.852C279.657 778.852 281 777.509 281 775.852C281 774.195 279.657 772.852 278 772.852C276.343 772.852 275 774.195 275 775.852C275 777.509 276.343 778.852 278 778.852ZM290 778.852C291.657 778.852 293 777.509 293 775.852C293 774.195 291.657 772.852 290 772.852C288.343 772.852 287 774.195 287 775.852C287 777.509 288.343 778.852 290 778.852Z" stroke="#080708" stroke-width="2" stroke-linecap="round" stroke-linejoin="round"/>
<path d="M7.70023 946.7L4.30023 953.3M10.3002 946.7L13.7002 953.3M9.00024 947C10.6571 947 12.0002 945.656 12.0002 944C12.0002 942.343 10.6571 941 9.00024 941C7.34339 941 6.00024 942.343 6.00024 944C6.00024 945.656 7.34339 947 9.00024 947ZM3.00024 959C4.6571 959 6.00024 957.656 6.00024 956C6.00024 954.343 4.6571 953 3.00024 953C1.34339 953 0.000242815 954.343 0.00024265 956C0.000242486 957.656 1.34339 959 3.00024 959ZM15.0002 959C16.6571 959 18.0002 957.656 18.0002 956C18.0002 954.343 16.6571 953 15.0002 953C13.3434 953 12.0002 954.343 12.0002 956C12.0002 957.656 13.3434 959 15.0002 959Z" stroke="#080708" stroke-width="2" stroke-linecap="round" stroke-linejoin="round"/>
<path d="M616.361 1590.21C614.269 1592.3 610.878 1592.3 608.787 1590.21C606.695 1588.12 606.695 1584.73 608.787 1582.64C610.878 1580.55 614.269 1580.55 616.361 1582.64C618.452 1584.73 618.452 1588.12 616.361 1590.21Z" fill="#FA4343"/>
<path d="M617.361 643.065C615.269 645.156 611.878 645.156 609.787 643.065C607.696 640.974 607.696 637.583 609.787 635.491C611.878 633.4 615.269 633.4 617.361 635.491C619.452 637.583 619.452 640.974 617.361 643.065Z" fill="#FA4343"/>
<path d="M851 944.852L837 953.852L851 962.852L851 944.852Z" stroke="#0000FF" stroke-width="2" stroke-linecap="round" stroke-linejoin="round"/>
<path d="M713.7 1266.55L710.3 1273.15M716.3 1266.55L719.7 1273.15M715 1266.85C716.657 1266.85 718 1265.51 718 1263.85C718 1262.2 716.657 1260.85 715 1260.85C713.343 1260.85 712 1262.2 712 1263.85C712 1265.51 713.343 1266.85 715 1266.85ZM709 1278.85C710.657 1278.85 712 1277.51 712 1275.85C712 1274.2 710.657 1272.85 709 1272.85C707.343 1272.85 706 1274.2 706 1275.85C706 1277.51 707.343 1278.85 709 1278.85ZM721 1278.85C722.657 1278.85 724 1277.51 724 1275.85C724 1274.2 722.657 1272.85 721 1272.85C719.343 1272.85 718 1274.2 718 1275.85C718 1277.51 719.343 1278.85 721 1278.85Z" stroke="#080708" stroke-width="2" stroke-linecap="round" stroke-linejoin="round"/>
<path d="M736.3 326.004L739.7 319.404M733.7 326.004L730.3 319.404M735 325.704C733.343 325.704 732 327.047 732 328.704C732 330.361 733.343 331.704 735 331.704C736.657 331.704 738 330.361 738 328.704C738 327.047 736.657 325.704 735 325.704ZM741 313.704C739.343 313.704 738 315.047 738 316.704C738 318.361 739.343 319.704 741 319.704C742.657 319.704 744 318.361 744 316.704C744 315.047 742.657 313.704 741 313.704ZM729 313.704C727.343 313.704 726 315.047 726 316.704C726 318.361 727.343 319.704 729 319.704C730.657 319.704 732 318.361 732 316.704C732 315.047 730.657 313.704 729 313.704Z" stroke="#080708" stroke-width="2" stroke-linecap="round" stroke-linejoin="round"/>
</g>
<defs>
<clipPath id="clip0">
<rect width="1433" height="1594" fill="white"/>
</clipPath>
</defs>
</svg>
