<svg width="1437" height="1044" viewBox="0 0 1437 1044" fill="none" xmlns="http://www.w3.org/2000/svg">
<rect width="1433" height="1044" fill="#FAFBFF"/>
<mask id="mask0" mask-type="alpha" maskUnits="userSpaceOnUse" x="0" y="0" width="1437" height="1044">
<rect width="1437" height="1044" fill="#FAFBFF"/>
</mask>
<g mask="url(#mask0)">
<g opacity="0.5">
<path d="M1335.51 63.3609C1337.6 61.2695 1337.6 57.8785 1335.51 55.787C1333.42 53.6955 1330.03 53.6955 1327.93 55.787C1325.84 57.8785 1325.84 61.2695 1327.93 63.3609C1330.03 65.4524 1333.42 65.4524 1335.51 63.3609Z" fill="#FA4343"/>
<path d="M388.361 64.3609C390.452 62.2695 390.452 58.8785 388.361 56.787C386.269 54.6955 382.878 54.6955 380.787 56.787C378.695 58.8785 378.695 62.2695 380.787 64.3609C382.878 66.4524 386.269 66.4524 388.361 64.3609Z" fill="#FA4343"/>
<path d="M1011.85 160.7L1018.45 157.3M1011.85 163.3L1018.45 166.7M1012.15 162C1012.15 163.657 1010.8 165 1009.15 165C1007.49 165 1006.15 163.657 1006.15 162C1006.15 160.343 1007.49 159 1009.15 159C1010.8 159 1012.15 160.343 1012.15 162ZM1024.15 156C1024.15 157.657 1022.8 159 1021.15 159C1019.49 159 1018.15 157.657 1018.15 156C1018.15 154.343 1019.49 153 1021.15 153C1022.8 153 1024.15 154.343 1024.15 156ZM1024.15 168C1024.15 169.657 1022.8 171 1021.15 171C1019.49 171 1018.15 169.657 1018.15 168C1018.15 166.343 1019.49 165 1021.15 165C1022.8 165 1024.15 166.343 1024.15 168Z" stroke="#080708" stroke-width="2" stroke-linecap="round" stroke-linejoin="round"/>
<path d="M64.7001 180.7L71.3001 177.3M64.7001 183.3L71.3001 186.7M65 182C65 183.657 63.6569 185 62 185C60.3431 185 59 183.657 59 182C59 180.343 60.3431 179 62 179C63.6569 179 65 180.343 65 182ZM77 176C77 177.657 75.6569 179 74 179C72.3431 179 71 177.657 71 176C71 174.343 72.3431 173 74 173C75.6569 173 77 174.343 77 176ZM77 188C77 189.657 75.6569 191 74 191C72.3431 191 71 189.657 71 188C71 186.343 72.3431 185 74 185C75.6569 185 77 186.343 77 188Z" stroke="#080708" stroke-width="2" stroke-linecap="round" stroke-linejoin="round"/>
<path d="M62.7871 371.361C60.6956 369.269 60.6956 365.878 62.7871 363.787C64.8785 361.696 68.2695 361.696 70.361 363.787C72.4525 365.878 72.4525 369.269 70.361 371.361C68.2695 373.452 64.8786 373.452 62.7871 371.361Z" fill="#FA4343"/>
<path d="M1009.94 372.361C1007.84 370.269 1007.84 366.878 1009.94 364.787C1012.03 362.696 1015.42 362.696 1017.51 364.787C1019.6 366.878 1019.6 370.269 1017.51 372.361C1015.42 374.452 1012.03 374.452 1009.94 372.361Z" fill="#FA4343"/>
<path d="M706.148 610L692.148 619L706.148 628V610Z" stroke="#0000FF" stroke-width="2" stroke-linecap="round" stroke-linejoin="round"/>
<path d="M381.848 466.7L378.448 473.3M384.448 466.7L387.848 473.3M383.148 467C384.805 467 386.148 465.657 386.148 464C386.148 462.343 384.805 461 383.148 461C381.491 461 380.148 462.343 380.148 464C380.148 465.657 381.491 467 383.148 467ZM377.148 479C378.805 479 380.148 477.657 380.148 476C380.148 474.343 378.805 473 377.148 473C375.491 473 374.148 474.343 374.148 476C374.148 477.657 375.491 479 377.148 479ZM389.148 479C390.805 479 392.148 477.657 392.148 476C392.148 474.343 390.805 473 389.148 473C387.491 473 386.148 474.343 386.148 476C386.148 477.657 387.491 479 389.148 479Z" stroke="#080708" stroke-width="2" stroke-linecap="round" stroke-linejoin="round"/>
<path d="M1333.6 488.7L1327 485.3M1333.6 491.3L1327 494.7M1333.3 490C1333.3 491.657 1334.64 493 1336.3 493C1337.95 493 1339.3 491.657 1339.3 490C1339.3 488.343 1337.95 487 1336.3 487C1334.64 487 1333.3 488.343 1333.3 490ZM1321.3 484C1321.3 485.657 1322.64 487 1324.3 487C1325.95 487 1327.3 485.657 1327.3 484C1327.3 482.343 1325.95 481 1324.3 481C1322.64 481 1321.3 482.343 1321.3 484ZM1321.3 496C1321.3 497.657 1322.64 499 1324.3 499C1325.95 499 1327.3 497.657 1327.3 496C1327.3 494.343 1325.95 493 1324.3 493C1322.64 493 1321.3 494.343 1321.3 496Z" stroke="#080708" stroke-width="2" stroke-linecap="round" stroke-linejoin="round"/>
<path d="M388.639 714.935C390.731 712.844 394.122 712.844 396.213 714.935C398.305 717.026 398.305 720.417 396.213 722.509C394.122 724.6 390.731 724.6 388.639 722.509C386.548 720.417 386.548 717.026 388.639 714.935Z" fill="#FA4343"/>
<path d="M171 411.148L162 397.148L153 411.148L171 411.148Z" stroke="#0000FF" stroke-width="2" stroke-linecap="round" stroke-linejoin="round"/>
<path d="M22 740L13 726L4 740L22 740Z" stroke="#0000FF" stroke-width="2" stroke-linecap="round" stroke-linejoin="round"/>
<path d="M292.3 91.4478L295.7 84.8478M289.7 91.4478L286.3 84.8478M291 91.1479C289.343 91.1479 288 92.4911 288 94.1479C288 95.8048 289.343 97.1479 291 97.1479C292.657 97.1479 294 95.8048 294 94.1479C294 92.4911 292.657 91.1479 291 91.1479ZM297 79.1479C295.343 79.1479 294 80.4911 294 82.1479C294 83.8048 295.343 85.1479 297 85.1479C298.657 85.1479 300 83.8048 300 82.1479C300 80.4911 298.657 79.1479 297 79.1479ZM285 79.1479C283.343 79.1479 282 80.4911 282 82.1479C282 83.8048 283.343 85.1479 285 85.1479C286.657 85.1479 288 83.8048 288 82.1479C288 80.4911 286.657 79.1479 285 79.1479Z" stroke="#080708" stroke-width="2" stroke-linecap="round" stroke-linejoin="round"/>
<path d="M272.3 1038.6L275.7 1032M269.7 1038.6L266.3 1032M271 1038.3C269.343 1038.3 268 1039.64 268 1041.3C268 1042.95 269.343 1044.3 271 1044.3C272.657 1044.3 274 1042.95 274 1041.3C274 1039.64 272.657 1038.3 271 1038.3ZM277 1026.3C275.343 1026.3 274 1027.64 274 1029.3C274 1030.95 275.343 1032.3 277 1032.3C278.657 1032.3 280 1030.95 280 1029.3C280 1027.64 278.657 1026.3 277 1026.3ZM265 1026.3C263.343 1026.3 262 1027.64 262 1029.3C262 1030.95 263.343 1032.3 265 1032.3C266.657 1032.3 268 1030.95 268 1029.3C268 1027.64 266.657 1026.3 265 1026.3Z" stroke="#080708" stroke-width="2" stroke-linecap="round" stroke-linejoin="round"/>
<path d="M1251.64 3.78707C1253.73 1.69559 1257.12 1.69559 1259.21 3.78707C1261.31 5.87855 1261.31 9.26951 1259.21 11.361C1257.12 13.4525 1253.73 13.4525 1251.64 11.361C1249.55 9.26951 1249.55 5.87855 1251.64 3.78707Z" fill="#FA4343"/>
<path d="M1250.64 950.935C1252.73 948.844 1256.12 948.844 1258.21 950.935C1260.31 953.026 1260.31 956.417 1258.21 958.509C1256.12 960.6 1252.73 960.6 1250.64 958.509C1248.55 956.417 1248.55 953.026 1250.64 950.935Z" fill="#FA4343"/>
<path d="M1033 647.148L1024 633.148L1015 647.148L1033 647.148Z" stroke="#0000FF" stroke-width="2" stroke-linecap="round" stroke-linejoin="round"/>
<path d="M864 47.0001L873 61.0001L882 47.0001L864 47.0001Z" stroke="#0000FF" stroke-width="2" stroke-linecap="round" stroke-linejoin="round"/>
<path d="M1154.3 327.448L1157.7 320.848M1151.7 327.448L1148.3 320.848M1153 327.148C1151.34 327.148 1150 328.491 1150 330.148C1150 331.805 1151.34 333.148 1153 333.148C1154.66 333.148 1156 331.805 1156 330.148C1156 328.491 1154.66 327.148 1153 327.148ZM1159 315.148C1157.34 315.148 1156 316.491 1156 318.148C1156 319.805 1157.34 321.148 1159 321.148C1160.66 321.148 1162 319.805 1162 318.148C1162 316.491 1160.66 315.148 1159 315.148ZM1147 315.148C1145.34 315.148 1144 316.491 1144 318.148C1144 319.805 1145.34 321.148 1147 321.148C1148.66 321.148 1150 319.805 1150 318.148C1150 316.491 1148.66 315.148 1147 315.148Z" stroke="#080708" stroke-width="2" stroke-linecap="round" stroke-linejoin="round"/>
<path d="M1429.3 147.3L1432.7 140.7M1426.7 147.3L1423.3 140.7M1428 147C1426.34 147 1425 148.343 1425 150C1425 151.657 1426.34 153 1428 153C1429.66 153 1431 151.657 1431 150C1431 148.343 1429.66 147 1428 147ZM1434 135C1432.34 135 1431 136.343 1431 138C1431 139.657 1432.34 141 1434 141C1435.66 141 1437 139.657 1437 138C1437 136.343 1435.66 135 1434 135ZM1422 135C1420.34 135 1419 136.343 1419 138C1419 139.657 1420.34 141 1422 141C1423.66 141 1425 139.657 1425 138C1425 136.343 1423.66 135 1422 135Z" stroke="#080708" stroke-width="2" stroke-linecap="round" stroke-linejoin="round"/>
<path d="M819.639 450.935C821.731 448.843 825.122 448.843 827.213 450.935C829.305 453.026 829.305 456.417 827.213 458.509C825.122 460.6 821.731 460.6 819.639 458.509C817.548 456.417 817.548 453.026 819.639 450.935Z" fill="#FA4343"/>
<path d="M586 149.148L600 140.148L586 131.148V149.148Z" stroke="#0000FF" stroke-width="2" stroke-linecap="round" stroke-linejoin="round"/>
<path d="M700.7 767.996L697.3 774.596M703.3 767.996L706.7 774.596M702 768.296C703.657 768.296 705 766.953 705 765.296C705 763.639 703.657 762.296 702 762.296C700.343 762.296 699 763.639 699 765.296C699 766.953 700.343 768.296 702 768.296ZM696 780.296C697.657 780.296 699 778.953 699 777.296C699 775.639 697.657 774.296 696 774.296C694.343 774.296 693 775.639 693 777.296C693 778.953 694.343 780.296 696 780.296ZM708 780.296C709.657 780.296 711 778.953 711 777.296C711 775.639 709.657 774.296 708 774.296C706.343 774.296 705 775.639 705 777.296C705 778.953 706.343 780.296 708 780.296Z" stroke="#080708" stroke-width="2" stroke-linecap="round" stroke-linejoin="round"/>
</g>
</g>
</svg>
