<svg width="1440" height="188" viewBox="0 0 1440 188" fill="none" xmlns="http://www.w3.org/2000/svg">
<g opacity="0.07">
<path d="M451.846 267.084C454.335 270.269 455.611 274.235 455.443 278.274C455.443 285.974 450.646 292.501 441.053 297.857C431.431 303.274 421.154 307.438 410.474 310.246C400.05 313.089 389.3 314.567 378.495 314.642C347.556 314.642 323.173 305.65 305.345 287.666C287.517 269.682 278.59 245.103 278.563 213.931C278.259 195.51 282.371 177.285 290.555 160.778C297.909 145.838 309.432 133.346 323.733 124.81C338.43 116.145 355.24 111.719 372.3 112.022C398.389 112.022 419.041 120.414 434.257 137.199C449.474 153.984 457.069 176.631 457.042 205.139C457.042 215.769 452.245 221.125 442.652 221.125H319.216C321.881 262.395 341.734 283.043 378.775 283.07C387.471 283.242 396.129 281.889 404.358 279.073C412.17 276.108 419.781 272.637 427.142 268.683C429.276 267.428 431.478 266.294 433.738 265.286C436.508 263.767 439.579 262.88 442.732 262.688C444.488 262.663 446.226 263.047 447.808 263.81C449.39 264.573 450.772 265.694 451.846 267.084ZM335.924 156.382C326.571 166.214 320.975 180.068 319.136 197.945H422.266C421.466 179.802 416.869 165.881 408.475 156.182C400.081 146.484 388.289 141.609 373.099 141.556C366.206 141.255 359.327 142.421 352.919 144.977C346.51 147.533 340.718 151.42 335.924 156.382Z" fill="#0000FF"/>
<path d="M669.697 295.418C669.676 300.291 667.733 304.959 664.291 308.409C660.848 311.858 656.183 313.81 651.309 313.842C648.63 313.761 645.998 313.114 643.586 311.943C641.175 310.772 639.039 309.104 637.319 307.048L576.16 238.309L515.402 307.048C513.677 309.098 511.539 310.762 509.129 311.933C506.719 313.103 504.089 313.754 501.411 313.842C498.975 313.869 496.56 313.385 494.322 312.421C492.085 311.458 490.074 310.036 488.42 308.247C486.692 306.516 485.324 304.458 484.398 302.194C483.472 299.93 483.005 297.505 483.024 295.059C483.018 289.956 485.03 285.058 488.62 281.431L551.777 211.933L491.818 145.192C488.201 141.548 486.065 136.692 485.822 131.564C485.792 129.128 486.275 126.713 487.239 124.475C488.203 122.238 489.627 120.228 491.418 118.576C493.091 116.883 495.083 115.538 497.278 114.619C499.473 113.7 501.829 113.225 504.209 113.22C506.889 113.299 509.522 113.945 511.934 115.116C514.346 116.287 516.481 117.957 518.2 120.014L576.16 185.516L634.121 120.014C635.894 117.919 638.096 116.227 640.578 115.055C643.061 113.883 645.766 113.258 648.511 113.22C650.891 113.229 653.245 113.706 655.44 114.625C657.635 115.544 659.627 116.887 661.302 118.576C663.086 120.234 664.504 122.245 665.468 124.481C666.431 126.717 666.918 129.129 666.899 131.564C666.879 134.124 666.337 136.653 665.306 138.996C664.275 141.339 662.777 143.447 660.903 145.192L600.944 211.933L663.701 281.431C665.602 283.23 667.114 285.399 668.146 287.805C669.177 290.21 669.705 292.801 669.697 295.418Z" fill="#0000FF"/>
<path d="M738.93 302.252C724.678 294.014 713.146 281.79 705.753 267.083C697.925 250.445 693.9 232.273 693.969 213.886C694.038 195.498 698.2 177.357 706.153 160.778C713.855 145.757 725.72 133.271 740.329 124.81C755.718 116.053 773.193 111.634 790.895 112.021C801.244 112.042 811.539 113.522 821.474 116.417C831.131 119.074 840.354 123.112 848.856 128.407C857.356 134.241 861.62 141.035 861.647 148.788C861.781 152.884 860.511 156.902 858.049 160.178C856.991 161.618 855.605 162.786 854.007 163.585C852.408 164.384 850.643 164.792 848.856 164.774C846.349 164.747 843.885 164.131 841.66 162.976C838.496 161.338 835.427 159.524 832.467 157.541C826.594 153.709 820.37 150.444 813.879 147.789C807.291 145.377 800.308 144.224 793.293 144.392C775.146 144.392 761.088 150.52 751.122 162.776C741.155 175.032 736.159 192.083 736.132 213.931C736.132 235.751 741.062 252.59 750.922 264.446C760.782 276.302 774.773 282.243 792.894 282.27C800.118 282.402 807.303 281.182 814.079 278.673C820.623 276.061 826.913 272.85 832.866 269.081C835.671 267.261 838.611 265.658 841.66 264.286C844.148 263.046 846.877 262.364 849.655 262.288C851.444 262.26 853.213 262.663 854.813 263.463C856.413 264.263 857.797 265.436 858.849 266.883C861.322 270.153 862.593 274.176 862.446 278.273C862.481 281.88 861.437 285.415 859.448 288.424C856.708 292.211 853.244 295.417 849.255 297.856C840.64 303.435 831.197 307.617 821.274 310.245C810.727 313.152 799.837 314.63 788.896 314.641C771.432 315.056 754.177 310.777 738.93 302.252Z" fill="#0000FF"/>
<path d="M932.52 302.252C918.055 294.068 906.363 281.752 898.943 266.883C891.175 250.098 887.151 231.825 887.151 213.331C887.151 194.836 891.175 176.563 898.943 159.778C906.339 144.892 918.037 132.57 932.52 124.41C948.132 116.271 965.479 112.021 983.086 112.021C1000.69 112.021 1018.04 116.271 1033.65 124.41C1048.12 132.594 1059.81 144.909 1067.23 159.778C1075 176.563 1079.02 194.836 1079.02 213.331C1079.02 231.825 1075 250.098 1067.23 266.883C1059.78 281.735 1048.1 294.044 1033.65 302.252C1018.04 310.391 1000.69 314.641 983.086 314.641C965.479 314.641 948.132 310.391 932.52 302.252ZM1024.06 265.085C1033.49 253.335 1038.22 236.137 1038.25 213.491C1038.25 191.15 1033.45 174.006 1023.86 162.176C1014.26 150.347 1000.67 144.392 983.086 144.392C965.498 144.392 951.907 150.307 942.313 162.176C932.72 174.046 927.923 191.15 927.923 213.491C927.923 235.831 932.64 253.455 942.114 265.085C951.587 276.714 965.218 282.669 983.086 282.669C1000.95 282.669 1014.74 276.794 1024.06 265.085Z" fill="#0000FF"/>
<path d="M1245.31 129.204C1245.48 131.584 1245.18 133.974 1244.43 136.238C1243.67 138.502 1242.48 140.593 1240.91 142.392C1236.59 145.803 1231.23 147.623 1225.72 147.548L1213.73 148.787C1196.94 150.385 1184.48 156.247 1176.35 166.371C1168.1 176.816 1163.78 189.832 1164.16 203.138V294.657C1164.36 297.32 1163.96 299.994 1162.99 302.483C1162.02 304.972 1160.51 307.213 1158.57 309.044C1154.52 312.343 1149.4 314.049 1144.18 313.84C1138.9 314.043 1133.72 312.341 1129.59 309.044C1127.58 307.25 1126.02 305.02 1125.01 302.526C1124.01 300.031 1123.59 297.339 1123.79 294.657V132.001C1123.63 129.353 1124.06 126.701 1125.07 124.245C1126.07 121.788 1127.61 119.59 1129.59 117.814C1133.66 114.389 1138.86 112.608 1144.18 112.819C1149.12 112.664 1153.93 114.458 1157.57 117.814C1159.4 119.585 1160.83 121.73 1161.76 124.101C1162.69 126.473 1163.1 129.018 1162.96 131.562V150.785C1167.73 139.671 1175.83 130.313 1186.15 124.009C1196.6 117.751 1208.37 114.053 1220.52 113.218L1226.12 112.819C1238.91 112.019 1245.31 117.454 1245.31 129.204Z" fill="#0000FF"/>
<path d="M1440.37 33.2921C1442.26 35.0868 1443.73 37.2645 1444.69 39.6777C1445.66 42.091 1446.09 44.6834 1445.97 47.2796V294.26C1446.12 296.901 1445.72 299.544 1444.79 302.021C1443.86 304.498 1442.42 306.755 1440.57 308.647C1436.46 312.01 1431.3 313.847 1425.98 313.847C1420.67 313.847 1415.51 312.01 1411.39 308.647C1409.55 306.755 1408.11 304.498 1407.18 302.021C1406.25 299.544 1405.85 296.901 1406 294.26V278.274C1400.43 289.668 1391.5 299.083 1380.42 305.25C1368.52 311.67 1355.16 314.905 1341.64 314.642C1325.72 314.885 1310.08 310.437 1296.67 301.853C1283.22 293.009 1272.55 280.539 1265.89 265.885C1258.29 249.214 1254.54 231.05 1254.9 212.733C1254.48 194.398 1258.24 176.208 1265.89 159.54C1272.43 145.039 1283.11 132.794 1296.59 124.34C1310.06 115.886 1325.74 111.601 1341.64 112.022C1355.1 111.723 1368.4 114.962 1380.22 121.414C1391.14 127.538 1399.98 136.794 1405.6 147.99V46.4804C1405.48 43.9923 1405.91 41.5086 1406.84 39.1984C1407.77 36.8882 1409.19 34.8056 1410.99 33.0923C1415.02 29.5887 1420.26 27.7961 1425.58 28.0967C1431 27.8408 1436.31 29.7042 1440.37 33.2921ZM1391.61 264.686C1401.2 252.697 1406 235.632 1406 213.492C1406 191.352 1401.27 174.313 1391.81 162.377C1382.32 150.388 1368.8 144.393 1351.24 144.393C1333.67 144.393 1320.02 150.321 1310.26 162.177C1300.51 174.007 1295.65 190.859 1295.67 212.733C1295.7 234.606 1300.63 251.724 1310.46 264.087C1315.31 270.185 1321.53 275.049 1328.61 278.279C1335.7 281.509 1343.45 283.014 1351.24 282.67C1368.53 282.67 1381.99 276.676 1391.61 264.686Z" fill="#0000FF"/>
<path d="M10.3862 0.11853C4.97942 0.11853 -0.205881 2.26585 -4.02902 6.0882C-7.85217 9.91054 -10 15.0948 -10 20.5004C-10 20.5004 -10 20.7402 -10 20.9001V291.859C-10 292.379 -10 292.818 -10 293.338C-10 293.857 -10 294.177 -10 294.617C-10 297.293 -9.4727 299.944 -8.4482 302.417C-7.4237 304.889 -5.92205 307.136 -4.02902 309.029C-2.136 310.921 0.111343 312.423 2.5847 313.447C5.05806 314.471 7.70901 314.999 10.3862 314.999C13.0633 314.999 15.7142 314.471 18.1876 313.447C20.6609 312.423 22.9083 310.921 24.8013 309.029C26.6943 307.136 28.196 304.889 29.2205 302.417C30.245 299.944 30.7723 297.293 30.7723 294.617C30.7723 294.177 30.7723 293.737 30.7723 293.298C30.7723 292.858 30.7723 292.379 30.7723 291.859V225.238C14.499 206.412 5.54418 182.361 5.54418 157.479C5.54418 132.596 14.499 108.545 30.7723 89.7189V20.7802C30.7723 20.7802 30.7723 20.5004 30.7723 20.3805C30.7406 14.9957 28.5788 9.84221 24.7591 6.04575C20.9394 2.2493 15.7722 0.118437 10.3862 0.11853Z" fill="#0000FF"/>
<path d="M229.356 20.3819C229.356 14.9763 227.208 9.79201 223.385 5.96967C219.561 2.14732 214.376 0 208.969 0C203.563 0 198.377 2.14732 194.554 5.96967C190.731 9.79201 188.583 14.9763 188.583 20.3819C188.566 20.5145 188.566 20.6489 188.583 20.7816V89.6004C204.802 108.452 213.722 132.494 213.722 157.36C213.722 182.226 204.802 206.268 188.583 225.12V291.86C188.583 292.38 188.583 292.82 188.583 293.299C188.583 293.779 188.583 294.178 188.583 294.618C188.583 300.024 190.731 305.208 194.554 309.03C198.377 312.852 203.563 315 208.969 315C214.376 315 219.561 312.852 223.385 309.03C227.208 305.208 229.356 300.024 229.356 294.618C229.377 294.192 229.377 293.765 229.356 293.339C229.356 292.82 229.356 292.38 229.356 291.86V20.7816C229.356 20.7816 229.356 20.5018 229.356 20.3819Z" fill="#0000FF"/>
<path d="M109.518 212.052C139.674 212.052 164.121 187.611 164.121 157.461C164.121 127.311 139.674 102.869 109.518 102.869C79.3616 102.869 54.915 127.311 54.915 157.461C54.915 187.611 79.3616 212.052 109.518 212.052Z" fill="#FA4343"/>
</g>
</svg>
