<svg width="93" height="20" viewBox="0 0 93 20" fill="none" xmlns="http://www.w3.org/2000/svg">
<path d="M29.3174 16.9577C29.4754 17.1599 29.5564 17.4117 29.5458 17.6682C29.5458 18.157 29.2413 18.5715 28.6323 18.9115C28.0215 19.2555 27.3691 19.5198 26.6912 19.6981C26.0295 19.8787 25.3471 19.9725 24.6612 19.9772C22.6972 19.9772 21.1494 19.4063 20.0177 18.2645C18.886 17.1226 18.3193 15.5621 18.3177 13.5829C18.2983 12.4133 18.5593 11.2561 19.0789 10.2081C19.5457 9.25955 20.2772 8.4664 21.1849 7.92445C22.1179 7.37427 23.185 7.09322 24.2679 7.11247C25.924 7.11247 27.235 7.64532 28.2009 8.71104C29.1668 9.77676 29.6489 11.2146 29.6473 13.0247C29.6473 13.6996 29.3428 14.0396 28.7338 14.0396H20.8982C21.0674 16.66 22.3276 17.971 24.679 17.9726C25.231 17.9836 25.7806 17.8977 26.3029 17.7189C26.7989 17.5307 27.282 17.3103 27.7493 17.0592C27.8847 16.9795 28.0245 16.9075 28.1679 16.8435C28.3438 16.7471 28.5387 16.6908 28.7389 16.6786C28.8503 16.677 28.9607 16.7014 29.0611 16.7498C29.1615 16.7983 29.2492 16.8694 29.3174 16.9577ZM21.9589 9.92901C21.3651 10.5532 21.0099 11.4329 20.8931 12.5679H27.4397C27.3889 11.4159 27.0971 10.5321 26.5643 9.91632C26.0314 9.30057 25.2829 8.99101 24.3187 8.98763C23.8811 8.96852 23.4445 9.04256 23.0376 9.20485C22.6308 9.36713 22.2631 9.61397 21.9589 9.92901Z" fill="#0000FF"/>
<path d="M43.1462 18.7567C43.1449 19.0661 43.0216 19.3625 42.803 19.5815C42.5845 19.8005 42.2884 19.9244 41.979 19.9264C41.8089 19.9213 41.6418 19.8802 41.4887 19.8059C41.3357 19.7315 41.2001 19.6256 41.0909 19.4951L37.2086 15.1307L33.3517 19.4951C33.2422 19.6252 33.1066 19.7309 32.9536 19.8052C32.8006 19.8795 32.6336 19.9208 32.4636 19.9264C32.309 19.9282 32.1557 19.8974 32.0136 19.8363C31.8716 19.7751 31.744 19.6848 31.639 19.5712C31.5292 19.4613 31.4425 19.3307 31.3837 19.1869C31.3249 19.0432 31.2952 18.8892 31.2964 18.7339C31.2961 18.4099 31.4238 18.0989 31.6517 17.8686L35.6608 13.456L31.8547 9.21851C31.6251 8.98713 31.4895 8.67884 31.474 8.35325C31.4722 8.19858 31.5028 8.04523 31.564 7.90316C31.6252 7.7611 31.7156 7.63348 31.8293 7.52859C31.9355 7.42112 32.0619 7.33574 32.2013 7.27738C32.3406 7.21902 32.4902 7.18884 32.6413 7.18857C32.8114 7.19354 32.9785 7.23457 33.1316 7.30893C33.2847 7.38329 33.4203 7.48929 33.5294 7.61993L37.2086 11.7788L40.8879 7.61993C41.0004 7.48687 41.1402 7.37949 41.2978 7.30508C41.4554 7.23066 41.6271 7.19093 41.8014 7.18857C41.9524 7.18911 42.1019 7.21942 42.2412 7.27777C42.3805 7.33611 42.507 7.42134 42.6133 7.52859C42.7265 7.63387 42.8166 7.76156 42.8777 7.90354C42.9389 8.04551 42.9698 8.19867 42.9686 8.35325C42.9673 8.51578 42.9329 8.67634 42.8674 8.82511C42.802 8.97388 42.7069 9.10774 42.588 9.21851L38.7818 13.456L42.7656 17.8686C42.8863 17.9828 42.9823 18.1206 43.0477 18.2733C43.1132 18.426 43.1467 18.5905 43.1462 18.7567Z" fill="#0000FF"/>
<path d="M47.5412 19.1906C46.6365 18.6676 45.9044 17.8914 45.4351 16.9577C44.9382 15.9012 44.6827 14.7475 44.6871 13.58C44.6915 12.4126 44.9556 11.2608 45.4605 10.2081C45.9494 9.25441 46.7026 8.46162 47.63 7.92443C48.6068 7.36847 49.7161 7.08785 50.8398 7.11245C51.4968 7.11375 52.1503 7.20772 52.781 7.39157C53.394 7.56023 53.9794 7.81662 54.5191 8.1528C55.0587 8.52326 55.3294 8.95463 55.3311 9.44689C55.3396 9.70692 55.259 9.96205 55.1027 10.17C55.0355 10.2615 54.9476 10.3356 54.8461 10.3863C54.7446 10.4371 54.6325 10.463 54.5191 10.4619C54.36 10.4601 54.2036 10.421 54.0624 10.3477C53.8615 10.2437 53.6666 10.1285 53.4788 10.0026C53.1059 9.75931 52.7109 9.552 52.2988 9.38345C51.8806 9.23027 51.4373 9.15711 50.9921 9.16777C49.8401 9.16777 48.9478 9.55684 48.3151 10.335C47.6824 11.1131 47.3652 12.1958 47.3636 13.5829C47.3636 14.9683 47.6765 16.0374 48.3024 16.7902C48.9283 17.543 49.8164 17.9202 50.9667 17.9219C51.4253 17.9303 51.8814 17.8528 52.3115 17.6935C52.727 17.5277 53.1262 17.3238 53.5041 17.0845C53.6822 16.969 53.8688 16.8672 54.0624 16.78C54.2203 16.7013 54.3935 16.658 54.5698 16.6532C54.6834 16.6514 54.7957 16.677 54.8973 16.7278C54.9988 16.7786 55.0867 16.8531 55.1535 16.945C55.3105 17.1526 55.3911 17.408 55.3818 17.6681C55.384 17.8971 55.3177 18.1216 55.1915 18.3127C55.0176 18.5531 54.7976 18.7566 54.5445 18.9115C53.9976 19.2657 53.3981 19.5312 52.7683 19.6981C52.0987 19.8827 51.4075 19.9765 50.713 19.9772C49.6044 20.0035 48.509 19.7319 47.5412 19.1906Z" fill="#0000FF"/>
<path d="M59.8299 19.1906C58.9117 18.671 58.1695 17.889 57.6985 16.945C57.2054 15.8793 56.95 14.7191 56.95 13.5448C56.95 12.3706 57.2054 11.2104 57.6985 10.1447C58.168 9.19954 58.9105 8.41719 59.8299 7.89906C60.8209 7.3823 61.9221 7.11246 63.0397 7.11246C64.1574 7.11246 65.2586 7.3823 66.2496 7.89906C67.1678 8.41868 67.91 9.20062 68.381 10.1447C68.8741 11.2104 69.1295 12.3706 69.1295 13.5448C69.1295 14.7191 68.8741 15.8793 68.381 16.945C67.9085 17.888 67.1667 18.6695 66.2496 19.1906C65.2586 19.7074 64.1574 19.9772 63.0397 19.9772C61.9221 19.9772 60.8209 19.7074 59.8299 19.1906ZM65.6406 16.8308C66.2394 16.0848 66.5397 14.9929 66.5414 13.555C66.5414 12.1366 66.2369 11.048 65.6279 10.2969C65.0189 9.54585 64.1562 9.16777 63.0397 9.16777C61.9233 9.16777 61.0606 9.54331 60.4516 10.2969C59.8426 11.0505 59.5381 12.1366 59.5381 13.555C59.5381 14.9734 59.8375 16.0924 60.4389 16.8308C61.0403 17.5692 61.9055 17.9473 63.0397 17.9473C64.174 17.9473 65.0494 17.5743 65.6406 16.8308Z" fill="#0000FF"/>
<path d="M79.6854 8.20348C79.6965 8.35457 79.6775 8.50636 79.6296 8.65009C79.5817 8.79381 79.5058 8.92661 79.4063 9.04084C79.132 9.25738 78.7915 9.37296 78.4421 9.36817L77.6808 9.44683C76.6151 9.54832 75.8243 9.92048 75.3083 10.5633C74.7844 11.2265 74.5104 12.0529 74.5344 12.8977V18.7084C74.5469 18.8775 74.5215 19.0473 74.4601 19.2053C74.3986 19.3633 74.3027 19.5057 74.1792 19.6219C73.922 19.8314 73.5972 19.9397 73.2657 19.9264C72.9305 19.9393 72.6018 19.8312 72.3396 19.6219C72.2123 19.508 72.113 19.3664 72.0492 19.208C71.9854 19.0496 71.9588 18.8787 71.9716 18.7084V8.3811C71.9612 8.21295 71.9889 8.0446 72.0526 7.88863C72.1163 7.73265 72.2144 7.59308 72.3396 7.48032C72.598 7.26287 72.9283 7.14975 73.2657 7.16314C73.5797 7.1533 73.885 7.26721 74.1158 7.48032C74.2321 7.59278 74.3228 7.72892 74.3819 7.87952C74.441 8.03012 74.4671 8.19165 74.4583 8.3532V9.5737C74.7606 8.86804 75.2749 8.27389 75.93 7.87362C76.5932 7.4763 77.341 7.24153 78.1122 7.18851L78.4674 7.16314C79.2794 7.11239 79.6854 7.45748 79.6854 8.20348Z" fill="#0000FF"/>
<path d="M92.0679 2.11373C92.1873 2.22768 92.2808 2.36594 92.342 2.51917C92.4033 2.67239 92.431 2.83699 92.4231 3.00182V18.6831C92.4325 18.8508 92.4069 19.0186 92.348 19.1759C92.289 19.3332 92.1979 19.4764 92.0806 19.5966C91.8192 19.8101 91.492 19.9268 91.1544 19.9268C90.8169 19.9268 90.4897 19.8101 90.2283 19.5966C90.1109 19.4764 90.0198 19.3332 89.9609 19.1759C89.9019 19.0186 89.8763 18.8508 89.8857 18.6831V17.6682C89.5321 18.3916 88.9654 18.9893 88.2618 19.3809C87.5064 19.7885 86.6586 19.9939 85.8005 19.9772C84.7898 19.9926 83.7971 19.7102 82.9459 19.1652C82.092 18.6037 81.4147 17.812 80.992 16.8815C80.5097 15.8231 80.2712 14.6698 80.2942 13.5068C80.2676 12.3426 80.5063 11.1877 80.992 10.1295C81.4071 9.2088 82.085 8.43128 82.9405 7.89452C83.7959 7.35777 84.7909 7.0857 85.8005 7.11246C86.6548 7.0935 87.4991 7.29911 88.2491 7.70875C88.9427 8.09757 89.5039 8.6853 89.8603 9.39614V2.95108C89.8531 2.79311 89.8799 2.63541 89.939 2.48873C89.9981 2.34205 90.0881 2.20982 90.2029 2.10104C90.4584 1.87859 90.7908 1.76478 91.1291 1.78386C91.473 1.76761 91.8097 1.88592 92.0679 2.11373ZM88.9722 16.8054C89.5812 16.0442 89.8857 14.9607 89.8857 13.555C89.8857 12.1493 89.5854 11.0675 88.9849 10.3096C88.3827 9.54839 87.5242 9.16777 86.4094 9.16777C85.2947 9.16777 84.4277 9.54415 83.8086 10.2969C83.1894 11.048 82.8807 12.118 82.8824 13.5068C82.8841 14.8956 83.1971 15.9824 83.8213 16.7674C84.1288 17.1545 84.5236 17.4634 84.9735 17.6685C85.4234 17.8735 85.9155 17.9691 86.4094 17.9473C87.5073 17.9473 88.3616 17.5667 88.9722 16.8054Z" fill="#0000FF"/>
<path d="M1.29409 0.00759888C0.950875 0.00759888 0.621719 0.143937 0.37903 0.386625C0.136342 0.629314 0 0.958474 0 1.30169C0 1.30169 0 1.31691 0 1.32706V18.5308C0 18.5638 0 18.5917 0 18.6247C0 18.6577 0 18.678 0 18.7059C-1.01293e-08 18.8758 0.0334725 19.0441 0.0985065 19.2011C0.16354 19.3581 0.258863 19.5008 0.37903 19.6209C0.499197 19.7411 0.641856 19.8364 0.798862 19.9015C0.955868 19.9665 1.12415 20 1.29409 20C1.46403 20 1.63231 19.9665 1.78931 19.9015C1.94632 19.8364 2.08898 19.7411 2.20914 19.6209C2.32931 19.5008 2.42463 19.3581 2.48967 19.2011C2.5547 19.0441 2.58817 18.8758 2.58817 18.7059C2.58817 18.678 2.58817 18.6501 2.58817 18.6222C2.58817 18.5942 2.58817 18.5638 2.58817 18.5308V14.3009C1.55516 13.1056 0.986726 11.5785 0.986726 9.99871C0.986726 8.41889 1.55516 6.89181 2.58817 5.69651V1.31945C2.58817 1.31945 2.58817 1.30169 2.58817 1.29408C2.58616 0.952183 2.44893 0.624975 2.20646 0.383931C1.96399 0.142886 1.63599 0.00759296 1.29409 0.00759888Z" fill="#0000FF"/>
<path d="M15.194 1.29409C15.194 0.950875 15.0577 0.621715 14.815 0.379026C14.5723 0.136338 14.2431 0 13.8999 0C13.5567 0 13.2275 0.136338 12.9848 0.379026C12.7422 0.621715 12.6058 0.950875 12.6058 1.29409C12.6047 1.30251 12.6047 1.31104 12.6058 1.31946V5.68891C13.6354 6.88584 14.2016 8.4123 14.2016 9.99111C14.2016 11.5699 13.6354 13.0964 12.6058 14.2933V18.5308C12.6058 18.5638 12.6058 18.5917 12.6058 18.6222C12.6058 18.6526 12.6058 18.678 12.6058 18.7059C12.6058 19.0491 12.7422 19.3783 12.9848 19.621C13.2275 19.8636 13.5567 20 13.8999 20C14.2431 20 14.5723 19.8636 14.815 19.621C15.0577 19.3783 15.194 19.0491 15.194 18.7059C15.1954 18.6789 15.1954 18.6518 15.194 18.6247C15.194 18.5917 15.194 18.5638 15.194 18.5308V1.31946C15.194 1.31946 15.194 1.3017 15.194 1.29409Z" fill="#0000FF"/>
<path d="M7.58673 13.4636C9.50102 13.4636 11.0529 11.9118 11.0529 9.99747C11.0529 8.08318 9.50102 6.53134 7.58673 6.53134C5.67244 6.53134 4.12061 8.08318 4.12061 9.99747C4.12061 11.9118 5.67244 13.4636 7.58673 13.4636Z" fill="#FA4343"/>
</svg>
