<svg width="200" height="201" viewBox="0 0 200 201" fill="none" xmlns="http://www.w3.org/2000/svg">
<circle cx="100" cy="100.127" r="100" fill="#FED9D9"/>
<path d="M75.5921 114.311C83.6511 114.311 90.1842 107.778 90.1842 99.7189C90.1842 91.6599 83.6511 85.1268 75.5921 85.1268C67.5331 85.1268 61 91.6599 61 99.7189C61 107.778 67.5331 114.311 75.5921 114.311ZM75.5921 114.311H124.232M124.232 114.311C132.291 114.311 138.824 107.778 138.824 99.7189C138.824 91.6599 132.291 85.1268 124.232 85.1268C116.173 85.1268 109.64 91.6599 109.64 99.7189C109.64 107.778 116.173 114.311 124.232 114.311Z" stroke="#FA4343" stroke-width="3" stroke-linecap="round" stroke-linejoin="round"/>
</svg>
