<svg width="200" height="201" viewBox="0 0 200 201" fill="none" xmlns="http://www.w3.org/2000/svg">
<circle cx="100" cy="100.127" r="100" fill="#E6E6FF"/>
<path d="M83.8698 107.606C88.2162 107.606 91.7396 104.083 91.7396 99.7362C91.7396 95.3899 88.2162 91.8664 83.8698 91.8664C79.5234 91.8664 76 95.3899 76 99.7362C76 104.083 79.5234 107.606 83.8698 107.606Z" fill="#E6E6FF"/>
<path d="M115.349 91.8664C119.695 91.8664 123.219 88.343 123.219 83.9966C123.219 79.6503 119.695 76.1268 115.349 76.1268C111.003 76.1268 107.479 79.6503 107.479 83.9966C107.479 88.343 111.003 91.8664 115.349 91.8664Z" fill="#E6E6FF"/>
<path d="M115.349 123.346C119.695 123.346 123.219 119.822 123.219 115.476C123.219 111.129 119.695 107.606 115.349 107.606C111.003 107.606 107.479 111.129 107.479 115.476C107.479 119.822 111.003 123.346 115.349 123.346Z" fill="#E6E6FF"/>
<path d="M90.9529 96.3259L108.266 87.4068M90.9529 103.146L108.266 112.066M91.7396 99.7362C91.7396 104.083 88.2162 107.606 83.8698 107.606C79.5234 107.606 76 104.083 76 99.7362C76 95.3899 79.5234 91.8664 83.8698 91.8664C88.2162 91.8664 91.7396 95.3899 91.7396 99.7362ZM123.219 83.9966C123.219 88.343 119.695 91.8664 115.349 91.8664C111.003 91.8664 107.479 88.343 107.479 83.9966C107.479 79.6503 111.003 76.1268 115.349 76.1268C119.695 76.1268 123.219 79.6503 123.219 83.9966ZM123.219 115.476C123.219 119.822 119.695 123.346 115.349 123.346C111.003 123.346 107.479 119.822 107.479 115.476C107.479 111.129 111.003 107.606 115.349 107.606C119.695 107.606 123.219 111.129 123.219 115.476Z" stroke="#0000FF" stroke-width="3" stroke-linecap="round" stroke-linejoin="round"/>
</svg>
