<svg width="29" height="23" viewBox="0 0 29 23" fill="none" xmlns="http://www.w3.org/2000/svg">
<path d="M27.3947 1.01177C26.274 1.8023 25.0331 2.40693 23.7199 2.80237C23.015 1.99193 22.0783 1.41751 21.0363 1.1568C19.9944 0.896094 18.8975 0.961673 17.8941 1.34467C16.8906 1.72767 16.029 2.40961 15.4257 3.29826C14.8225 4.18691 14.5067 5.23939 14.5211 6.31336V7.48368C12.4644 7.53701 10.4264 7.08087 8.58869 6.15588C6.75096 5.2309 5.17052 3.86577 3.98812 2.1821C3.98812 2.1821 -0.693196 12.7151 9.83976 17.3964C7.4295 19.0324 4.55825 19.8528 1.64746 19.737C12.1804 25.5887 25.054 19.737 25.054 6.27825C25.0529 5.95226 25.0216 5.62707 24.9604 5.30687C26.1548 4.12893 26.9977 2.6417 27.3947 1.01177Z" stroke="#6795FF" stroke-width="2" stroke-linecap="round" stroke-linejoin="round"/>
</svg>
